# xmcd
#
# Track frame offsets: 
#        150
#        14923
#        27885
#        45669
#        65768
#        87665
#        100595
#        113567
#        131554
#        150312
#
# Disc length: 2376 seconds
#
# Revision: 3
# Processed by: cddbd v1.5.2PL0 Copyright (c) Steve Scherf et al.
# Submitted via: ExactAudioCopy v0.99pb5
#
DISCID=7d09460a
DTITLE=Laura Cantrell - Humming by the Flowered Vine
DYEAR=2005
DGENRE=Alt. Country
TTITLE0=14th Street
TTITLE1=What You Said
TTITLE2=And Still
TTITLE3=Khaki and Corduroy
TTITLE4=Letters
TTITLE5=California Rose
TTITLE6=Wishful Thinking
TTITLE7=Poor Ellen Smith
TTITLE8=Bees
TTITLE9=Old Downtown
EXTD=
EXTT0=
EXTT1=
EXTT2=
EXTT3=
EXTT4=
EXTT5=
EXTT6=
EXTT7=
EXTT8=
EXTT9=
PLAYORDER=
